<svg width="119" height="120" viewBox="0 0 119 120" fill="none" xmlns="http://www.w3.org/2000/svg">
<path fill-rule="evenodd" clip-rule="evenodd" d="M80 10.793C82.3085 10.14 84 8.01755 84 5.5C84 2.46243 81.5376 0 78.5 0C75.4624 0 73 2.46243 73 5.5C73 8.01755 74.6915 10.14 77 10.793V20.1319C74.7428 20.5338 72.7939 21.8266 71.5299 23.6338L53.8556 12.7573C53.9501 12.3535 54 11.9326 54 11.5C54 8.46243 51.5376 6 48.5 6C45.4624 6 43 8.46243 43 11.5C43 14.5376 45.4624 17 48.5 17C50.0225 17 51.4005 16.3814 52.3963 15.3818L70.2668 26.379C70.0926 27.057 70 27.7677 70 28.5C70 30.0519 70.4159 31.5066 71.1423 32.7588L41.5092 61.6321C40.1044 60.6058 38.373 60 36.5 60C34.7934 60 33.2042 60.503 31.8727 61.3688L17.6125 46.5144C18.4816 45.4092 19 44.0151 19 42.5C19 38.9101 16.0899 36 12.5 36C8.91015 36 6 38.9101 6 42.5C6 46.0899 8.91015 49 12.5 49C13.4844 49 14.4177 48.7812 15.2539 48.3895L29.6839 63.4207C28.6262 64.8378 28 66.5958 28 68.5C28 68.7335 28.0094 68.9649 28.0279 69.1937L8.37006 77.2024C7.58544 75.8837 6.14592 75 4.5 75C2.01472 75 0 77.0147 0 79.5C0 81.9853 2.01472 84 4.5 84C6.74449 84 8.60518 82.3568 8.94467 80.2077L28.8054 72.1163C30.0556 74.7718 32.64 76.6752 35.6945 76.9623L35.2519 87.1422C32.8156 87.7075 31 89.8917 31 92.5C31 95.5376 33.4624 98 36.5 98C39.5376 98 42 95.5376 42 92.5C42 90.0737 40.4289 88.0143 38.2485 87.2838L38.7082 76.7103C41.5763 75.9409 43.8457 73.7086 44.6674 70.8623L71.066 76.5701C71.0225 76.8738 71 77.1843 71 77.5C71 81.0899 73.9101 84 77.5 84C77.8897 84 78.2713 83.9657 78.6421 83.9L83.0022 94.2553C81.7794 95.2641 81 96.791 81 98.5C81 99.4418 81.2367 100.328 81.654 101.103L73.1034 109.654C72.3284 109.237 71.4418 109 70.5 109C67.4624 109 65 111.462 65 114.5C65 117.538 67.4624 120 70.5 120C73.5376 120 76 117.538 76 114.5C76 113.494 75.7302 112.552 75.259 111.741L83.741 103.259C84.552 103.73 85.4945 104 86.5 104C87.7681 104 88.936 103.571 89.8663 102.85L106.065 113.649C106.022 113.926 106 114.211 106 114.5C106 117.538 108.462 120 111.5 120C114.538 120 117 117.538 117 114.5C117 111.462 114.538 109 111.5 109C109.841 109 108.353 109.735 107.345 110.897L91.6505 100.434C91.8764 99.8321 92 99.1805 92 98.5C92 95.4624 89.5376 93 86.5 93C86.2456 93 85.9953 93.0173 85.7501 93.0507L81.394 82.705C82.9762 81.5194 84 79.6292 84 77.5C84 73.9101 81.0899 71 77.5 71C75.3092 71 73.3715 72.0839 72.194 73.7446L44.9762 67.8597C44.865 66.3657 44.3675 64.9792 43.5833 63.7997L73.0863 35.0533C74.5566 36.2693 76.443 37 78.5 37C80.3658 37 82.0912 36.3989 83.493 35.3797L98.6701 49.8669C98.2428 50.6489 98 51.5461 98 52.5C98 55.5376 100.462 58 103.5 58C106.538 58 109 55.5376 109 52.5C109 49.4624 106.538 47 103.5 47C102.507 47 101.575 47.2634 100.77 47.7242L85.5722 33.217C86.4741 31.8674 87 30.2451 87 28.5C87 28.2815 86.9918 28.0649 86.9756 27.8505L109.347 23.8351C110.079 25.6886 111.886 27 114 27C116.761 27 119 24.7614 119 22C119 19.2386 116.761 17 114 17C111.643 17 109.668 18.6303 109.139 20.8246L86.22 24.9382C85.0742 22.4588 82.7691 20.625 80 20.1319V10.793Z" fill="#919191"/>
</svg>
